<mxfile host="app.diagrams.net" agent="Mozilla/5.0 (Macintosh; Intel Mac OS X 10_15_7) AppleWebKit/537.36 (KHTML, like Gecko) Chrome/141.0.0.0 Safari/537.36" version="28.2.7" pages="2">
  <diagram name="Page-1" id="gZQ6qd2q1UEq3vpgC297">
    <mxGraphModel dx="750" dy="694" grid="1" gridSize="10" guides="1" tooltips="1" connect="1" arrows="1" fold="1" page="1" pageScale="1" pageWidth="1100" pageHeight="850" math="0" shadow="0">
      <root>
        <mxCell id="0" />
        <mxCell id="1" parent="0" />
        <mxCell id="e6ea_zQ7bEx38Cn0meQL-9" style="edgeStyle=orthogonalEdgeStyle;rounded=0;orthogonalLoop=1;jettySize=auto;html=1;exitX=0.5;exitY=0;exitDx=0;exitDy=0;entryX=0.5;entryY=1;entryDx=0;entryDy=0;" edge="1" parent="1" source="e6ea_zQ7bEx38Cn0meQL-1" target="e6ea_zQ7bEx38Cn0meQL-2">
          <mxGeometry relative="1" as="geometry" />
        </mxCell>
        <mxCell id="-EZPO5yb06UvfaGQK6pF-2" style="edgeStyle=orthogonalEdgeStyle;rounded=0;orthogonalLoop=1;jettySize=auto;html=1;exitX=0.5;exitY=0;exitDx=0;exitDy=0;" edge="1" parent="1" source="e6ea_zQ7bEx38Cn0meQL-1" target="-EZPO5yb06UvfaGQK6pF-1">
          <mxGeometry relative="1" as="geometry" />
        </mxCell>
        <mxCell id="hP-PeILO4R7mwz34CuAU-3" style="edgeStyle=orthogonalEdgeStyle;rounded=0;orthogonalLoop=1;jettySize=auto;html=1;exitX=0.5;exitY=0;exitDx=0;exitDy=0;entryX=0.5;entryY=1;entryDx=0;entryDy=0;" edge="1" parent="1" source="e6ea_zQ7bEx38Cn0meQL-1" target="hP-PeILO4R7mwz34CuAU-1">
          <mxGeometry relative="1" as="geometry" />
        </mxCell>
        <mxCell id="e6ea_zQ7bEx38Cn0meQL-1" value="BedRock&amp;nbsp; (Agent)" style="rounded=1;whiteSpace=wrap;html=1;" vertex="1" parent="1">
          <mxGeometry x="280" y="540" width="120" height="60" as="geometry" />
        </mxCell>
        <mxCell id="e6ea_zQ7bEx38Cn0meQL-2" value="Airport Scheduling Data&lt;br&gt;MCP&lt;br&gt;Server" style="ellipse;whiteSpace=wrap;html=1;aspect=fixed;" vertex="1" parent="1">
          <mxGeometry x="300" y="350" width="80" height="80" as="geometry" />
        </mxCell>
        <mxCell id="-EZPO5yb06UvfaGQK6pF-1" value="Internal / Historical&lt;br&gt;MCP&lt;br&gt;Server" style="ellipse;whiteSpace=wrap;html=1;aspect=fixed;" vertex="1" parent="1">
          <mxGeometry x="470" y="350" width="80" height="80" as="geometry" />
        </mxCell>
        <mxCell id="hP-PeILO4R7mwz34CuAU-1" value="LiveNation&lt;br&gt;MCP&lt;br&gt;Server" style="ellipse;whiteSpace=wrap;html=1;aspect=fixed;" vertex="1" parent="1">
          <mxGeometry x="150" y="350" width="80" height="80" as="geometry" />
        </mxCell>
      </root>
    </mxGraphModel>
  </diagram>
  <diagram id="jeowI5rejbN5SxoLtFuA" name="Page-2">
    <mxGraphModel dx="750" dy="694" grid="1" gridSize="10" guides="1" tooltips="1" connect="1" arrows="1" fold="1" page="1" pageScale="1" pageWidth="1100" pageHeight="850" math="0" shadow="0">
      <root>
        <mxCell id="0" />
        <mxCell id="1" parent="0" />
        <mxCell id="WOL4SahvckyPS7fQa-uv-1" style="edgeStyle=orthogonalEdgeStyle;rounded=0;orthogonalLoop=1;jettySize=auto;html=1;exitX=0.5;exitY=0;exitDx=0;exitDy=0;entryX=0.5;entryY=1;entryDx=0;entryDy=0;" edge="1" parent="1" source="WOL4SahvckyPS7fQa-uv-2" target="WOL4SahvckyPS7fQa-uv-11">
          <mxGeometry relative="1" as="geometry">
            <mxPoint x="340" y="510" as="targetPoint" />
          </mxGeometry>
        </mxCell>
        <mxCell id="WOL4SahvckyPS7fQa-uv-2" value="BedRock&amp;nbsp; (Agent)" style="rounded=1;whiteSpace=wrap;html=1;" vertex="1" parent="1">
          <mxGeometry x="280" y="610" width="120" height="60" as="geometry" />
        </mxCell>
        <mxCell id="WOL4SahvckyPS7fQa-uv-7" value="LiveNation" style="rounded=1;whiteSpace=wrap;html=1;" vertex="1" parent="1">
          <mxGeometry x="150" y="150" width="120" height="60" as="geometry" />
        </mxCell>
        <mxCell id="WOL4SahvckyPS7fQa-uv-8" value="Airport Data" style="rounded=1;whiteSpace=wrap;html=1;" vertex="1" parent="1">
          <mxGeometry x="330" y="150" width="120" height="60" as="geometry" />
        </mxCell>
        <mxCell id="WOL4SahvckyPS7fQa-uv-9" value="Internal Historical Data" style="rounded=1;whiteSpace=wrap;html=1;" vertex="1" parent="1">
          <mxGeometry x="500" y="150" width="120" height="60" as="geometry" />
        </mxCell>
        <mxCell id="WOL4SahvckyPS7fQa-uv-10" style="edgeStyle=orthogonalEdgeStyle;rounded=0;orthogonalLoop=1;jettySize=auto;html=1;exitX=0.5;exitY=0;exitDx=0;exitDy=0;entryX=0.5;entryY=1;entryDx=0;entryDy=0;" edge="1" parent="1" source="WOL4SahvckyPS7fQa-uv-11" target="WOL4SahvckyPS7fQa-uv-7">
          <mxGeometry relative="1" as="geometry" />
        </mxCell>
        <mxCell id="WOL4SahvckyPS7fQa-uv-11" value="MCP Adapter" style="rounded=1;whiteSpace=wrap;html=1;" vertex="1" parent="1">
          <mxGeometry x="150" y="230" width="120" height="30" as="geometry" />
        </mxCell>
      </root>
    </mxGraphModel>
  </diagram>
</mxfile>
